<mxfile host="app.diagrams.net" modified="2023-11-02T15:32:49.821Z" agent="Mozilla/5.0 (X11; Linux x86_64) AppleWebKit/537.36 (KHTML, like Gecko) Chrome/117.0.0.0 Safari/537.36" version="22.0.8" etag="hiIgd8PcX3goT2JFaH5Z" type="github">
  <diagram name="Page-1" id="sjJyfoQpN3MSpbDP431a">
    <mxGraphModel>
      <root>
        <mxCell id="0" />
        <mxCell id="1" parent="0" />
      </root>
    </mxGraphModel>
  </diagram>
</mxfile>
